# xmcd
#
# Track frame offsets:
#	150
#	20746
#	41395
#	63472
#	86360
#	106502
#	126404
#	148211
#	169349
#	190311
#	212872
#	234043
#	255940
#
# Disc length: 3682 seconds
#
# Revision: 1
# Processed by: cddbd v1.5.2PL0 Copyright (c) Steve Scherf et al.
# Submitted via: EZCDAudioConverter 7.1.7.1
#
DISCID=ae0e600d
DTITLE=江智民&周虹 - 情人·朋友 DTS-ES6.1
DYEAR=2010
DGENRE=
TTITLE0=爱在秋天的童话
TTITLE1=犯错
TTITLE2=谢谢你的爱
TTITLE3=说再见不应该在秋天
TTITLE4=旧梦不须记
TTITLE5=女孩的心思男孩你别猜
TTITLE6=糊涂的爱
TTITLE7=一水隔天涯
TTITLE8=心雨
TTITLE9=梁山伯与朱丽叶
TTITLE10=哪里的天空不下雨
TTITLE11=滚滚红尘
TTITLE12=爱我的人和我爱的人
EXTD=
EXTT0=
EXTT1=
EXTT2=
EXTT3=
EXTT4=
EXTT5=
EXTT6=
EXTT7=
EXTT8=
EXTT9=
EXTT10=
EXTT11=
EXTT12=
PLAYORDER=
